<?xml version="1.0" standalone="no"?>
<!DOCTYPE svg PUBLIC "-//W3C//DTD SVG 20010904//EN"
 "http://www.w3.org/TR/2001/REC-SVG-20010904/DTD/svg10.dtd">
<svg version="1.0" xmlns="http://www.w3.org/2000/svg"
 width="200.000000pt" height="200.000000pt" viewBox="0 0 200.000000 200.000000"
 preserveAspectRatio="xMidYMid meet">

<g transform="translate(0.000000,200.000000) scale(0.100000,-0.100000)"
fill="#000000" stroke="none">
<path d="M1195 1721 c4 -12 23 -45 43 -72 35 -47 37 -48 40 -24 4 32 -17 66
-59 96 l-31 22 7 -22z"/>
<path d="M754 1696 c-25 -25 -34 -43 -34 -67 0 -18 2 -30 4 -28 18 19 73 98
79 112 10 28 -12 20 -49 -17z"/>
<path d="M902 1610 c-24 -5 -60 -17 -80 -27 -37 -18 -37 -19 -40 -88 -2 -38
-1 -103 3 -143 7 -74 7 -74 33 -68 62 14 232 18 306 7 44 -6 82 -9 85 -6 2 3
6 66 8 139 2 101 -1 137 -11 145 -44 37 -215 60 -304 41z"/>
<path d="M731 1343 c-16 -80 -27 -524 -14 -548 10 -17 11 -17 21 2 18 32 32
141 32 242 l0 93 -25 -6 c-15 -4 -25 -2 -25 5 0 6 9 13 20 16 19 5 20 14 20
129 0 68 -4 124 -9 124 -4 0 -13 -26 -20 -57z"/>
<path d="M1240 1276 c0 -115 1 -124 20 -129 19 -5 20 0 20 67 0 80 -18 186
-31 186 -5 0 -9 -56 -9 -124z"/>
<path d="M990 1270 c0 -11 5 -20 10 -20 6 0 10 9 10 20 0 11 -4 20 -10 20 -5
0 -10 -9 -10 -20z"/>
<path d="M1230 1038 c0 -100 14 -209 32 -241 20 -38 28 6 28 164 0 154 0 157
-22 163 -13 3 -26 6 -30 6 -5 0 -8 -42 -8 -92z"/>
<path d="M766 772 c-33 -141 -30 -155 42 -178 85 -28 327 -26 396 3 61 25 63
33 29 175 l-24 107 -37 -7 c-48 -9 -296 -9 -344 0 l-37 7 -25 -107z"/>
<path d="M833 257 c9 -29 63 -42 167 -42 74 0 114 4 134 15 48 24 43 40 -6 22
-56 -21 -198 -21 -256 0 -29 11 -42 12 -39 5z"/>
</g>
</svg>
